<svg width="260" height="260" viewBox="0 0 260 260" xmlns="http://www.w3.org/2000/svg" fill="none">
  <!-- DevClaw Lobster Watermark (HC Dark) -->
  <!-- Antennae -->
  <path d="M100 65 Q90 30 75 15" stroke="#5C5C5C" stroke-width="4" fill="none" stroke-linecap="round"/>
  <path d="M160 65 Q170 30 185 15" stroke="#5C5C5C" stroke-width="4" fill="none" stroke-linecap="round"/>
  <circle cx="75" cy="13" r="4" fill="#5C5C5C"/>
  <circle cx="185" cy="13" r="4" fill="#5C5C5C"/>
  <!-- Left claw -->
  <path d="M60 95 Q20 80 15 60 Q10 45 30 42 Q45 40 50 55 Q52 65 55 75 Z" fill="#4C4C4C"/>
  <path d="M15 60 Q5 50 18 38 Q28 30 30 42" fill="#4C4C4C"/>
  <!-- Right claw -->
  <path d="M200 95 Q240 70 248 50 Q252 35 232 32 Q218 30 212 48 Q208 58 205 72 Z" fill="#4C4C4C"/>
  <path d="M248 50 Q258 38 244 28 Q234 22 232 32" fill="#4C4C4C"/>
  <!-- Body -->
  <ellipse cx="130" cy="120" rx="62" ry="55" fill="#3C3C3C"/>
  <!-- Tail -->
  <ellipse cx="130" cy="175" rx="48" ry="14" fill="#3C3C3C"/>
  <ellipse cx="130" cy="192" rx="40" ry="12" fill="#353535"/>
  <ellipse cx="130" cy="207" rx="32" ry="10" fill="#303030"/>
  <ellipse cx="130" cy="222" rx="38" ry="10" fill="#3C3C3C"/>
  <ellipse cx="108" cy="225" rx="16" ry="8" fill="#353535" transform="rotate(-15 108 225)"/>
  <ellipse cx="152" cy="225" rx="16" ry="8" fill="#353535" transform="rotate(15 152 225)"/>
  <!-- Eyes -->
  <circle cx="110" cy="100" r="12" fill="#1a1a1a"/>
  <circle cx="150" cy="100" r="12" fill="#1a1a1a"/>
  <circle cx="108" cy="97" r="4" fill="#ffffff" opacity="0.5"/>
  <circle cx="148" cy="97" r="4" fill="#ffffff" opacity="0.5"/>
  <!-- Smirk -->
  <path d="M115 118 Q130 130 145 118" stroke="#1a1a1a" stroke-width="3" fill="none" stroke-linecap="round"/>
  <!-- Legs -->
  <line x1="85" y1="140" x2="60" y2="160" stroke="#4C4C4C" stroke-width="4" stroke-linecap="round"/>
  <line x1="80" y1="150" x2="55" y2="172" stroke="#4C4C4C" stroke-width="4" stroke-linecap="round"/>
  <line x1="175" y1="140" x2="200" y2="160" stroke="#4C4C4C" stroke-width="4" stroke-linecap="round"/>
  <line x1="180" y1="150" x2="205" y2="172" stroke="#4C4C4C" stroke-width="4" stroke-linecap="round"/>
  <!-- Text -->
  <text x="130" y="252" text-anchor="middle" font-family="'Segoe UI', Arial, sans-serif" font-size="22" font-weight="700" letter-spacing="2">
    <tspan fill="#5C5C5C">Dev</tspan><tspan fill="#4C4C4C">Claw</tspan>
  </text>
</svg>
